<mxfile host="Electron" agent="Mozilla/5.0 (Windows NT 10.0; Win64; x64) AppleWebKit/537.36 (KHTML, like Gecko) draw.io/26.0.7 Chrome/128.0.6613.186 Electron/32.2.5 Safari/537.36" version="26.0.7">
  <diagram name="Page-1" id="KfTFx5eosGy3u5TLy4ej">
    <mxGraphModel dx="1290" dy="-479" grid="1" gridSize="10" guides="1" tooltips="1" connect="1" arrows="1" fold="1" page="1" pageScale="1" pageWidth="850" pageHeight="1100" math="0" shadow="0">
      <root>
        <mxCell id="0" />
        <mxCell id="1" parent="0" />
        <mxCell id="yUQ2PNZwTD3BYrP0No91-35" value="lorem" style="rounded=1;whiteSpace=wrap;html=1;" parent="1" vertex="1">
          <mxGeometry x="680" y="1580" width="80" height="20" as="geometry" />
        </mxCell>
        <mxCell id="yUQ2PNZwTD3BYrP0No91-44" value="" style="whiteSpace=wrap;html=1;aspect=fixed;" parent="1" vertex="1">
          <mxGeometry x="380" y="1340" width="80" height="80" as="geometry" />
        </mxCell>
        <mxCell id="yUQ2PNZwTD3BYrP0No91-50" value="button" style="rounded=1;whiteSpace=wrap;html=1;" parent="1" vertex="1">
          <mxGeometry x="380" y="1430" width="80" height="20" as="geometry" />
        </mxCell>
        <mxCell id="yUQ2PNZwTD3BYrP0No91-60" value="" style="endArrow=none;html=1;rounded=0;exitX=1;exitY=0;exitDx=0;exitDy=0;entryX=0;entryY=1;entryDx=0;entryDy=0;" parent="1" edge="1">
          <mxGeometry width="50" height="50" relative="1" as="geometry">
            <mxPoint x="460" y="1340" as="sourcePoint" />
            <mxPoint x="380" y="1420" as="targetPoint" />
          </mxGeometry>
        </mxCell>
        <mxCell id="yUQ2PNZwTD3BYrP0No91-61" value="" style="endArrow=none;html=1;rounded=0;exitX=0;exitY=0;exitDx=0;exitDy=0;entryX=1;entryY=1;entryDx=0;entryDy=0;" parent="1" edge="1">
          <mxGeometry width="50" height="50" relative="1" as="geometry">
            <mxPoint x="380" y="1340" as="sourcePoint" />
            <mxPoint x="460" y="1420" as="targetPoint" />
          </mxGeometry>
        </mxCell>
        <mxCell id="Jusry1fd8HChnup1eYpJ-2" value="" style="whiteSpace=wrap;html=1;aspect=fixed;" vertex="1" parent="1">
          <mxGeometry x="380" y="1560" width="620" height="620" as="geometry" />
        </mxCell>
        <mxCell id="Jusry1fd8HChnup1eYpJ-4" value="" style="rounded=1;whiteSpace=wrap;html=1;" vertex="1" parent="1">
          <mxGeometry x="380" y="1560" width="620" height="60" as="geometry" />
        </mxCell>
        <mxCell id="Jusry1fd8HChnup1eYpJ-5" value="lorem" style="rounded=1;whiteSpace=wrap;html=1;" vertex="1" parent="1">
          <mxGeometry x="590" y="1580" width="80" height="20" as="geometry" />
        </mxCell>
        <mxCell id="Jusry1fd8HChnup1eYpJ-6" value="lorem" style="rounded=1;whiteSpace=wrap;html=1;" vertex="1" parent="1">
          <mxGeometry x="500" y="1580" width="80" height="20" as="geometry" />
        </mxCell>
        <mxCell id="Jusry1fd8HChnup1eYpJ-7" value="lorem" style="rounded=1;whiteSpace=wrap;html=1;" vertex="1" parent="1">
          <mxGeometry x="400" y="1580" width="80" height="20" as="geometry" />
        </mxCell>
        <mxCell id="Jusry1fd8HChnup1eYpJ-8" value="lorem" style="rounded=1;whiteSpace=wrap;html=1;" vertex="1" parent="1">
          <mxGeometry x="780" y="1580" width="80" height="20" as="geometry" />
        </mxCell>
        <mxCell id="Jusry1fd8HChnup1eYpJ-9" value="lorem" style="rounded=1;whiteSpace=wrap;html=1;" vertex="1" parent="1">
          <mxGeometry x="680" y="1580" width="80" height="20" as="geometry" />
        </mxCell>
        <mxCell id="Jusry1fd8HChnup1eYpJ-11" value="lorem" style="rounded=1;whiteSpace=wrap;html=1;" vertex="1" parent="1">
          <mxGeometry x="870" y="1580" width="80" height="20" as="geometry" />
        </mxCell>
        <mxCell id="Jusry1fd8HChnup1eYpJ-12" value="lorem" style="rounded=1;whiteSpace=wrap;html=1;" vertex="1" parent="1">
          <mxGeometry x="610" y="1650" width="130" height="40" as="geometry" />
        </mxCell>
        <mxCell id="Jusry1fd8HChnup1eYpJ-13" value="lorem" style="rounded=1;whiteSpace=wrap;html=1;" vertex="1" parent="1">
          <mxGeometry x="615" y="1710" width="120" height="20" as="geometry" />
        </mxCell>
        <mxCell id="Jusry1fd8HChnup1eYpJ-14" value="lorem" style="rounded=1;whiteSpace=wrap;html=1;" vertex="1" parent="1">
          <mxGeometry x="380" y="1750" width="200" height="30" as="geometry" />
        </mxCell>
        <mxCell id="Jusry1fd8HChnup1eYpJ-15" value="lorem" style="rounded=1;whiteSpace=wrap;html=1;" vertex="1" parent="1">
          <mxGeometry x="615" y="1810" width="120" height="20" as="geometry" />
        </mxCell>
        <mxCell id="Jusry1fd8HChnup1eYpJ-16" value="" style="whiteSpace=wrap;html=1;aspect=fixed;" vertex="1" parent="1">
          <mxGeometry x="425" y="1870" width="80" height="80" as="geometry" />
        </mxCell>
        <mxCell id="Jusry1fd8HChnup1eYpJ-17" value="button" style="rounded=1;whiteSpace=wrap;html=1;" vertex="1" parent="1">
          <mxGeometry x="425" y="1960" width="80" height="20" as="geometry" />
        </mxCell>
        <mxCell id="Jusry1fd8HChnup1eYpJ-18" value="" style="endArrow=none;html=1;rounded=0;exitX=1;exitY=0;exitDx=0;exitDy=0;entryX=0;entryY=1;entryDx=0;entryDy=0;" edge="1" parent="1">
          <mxGeometry width="50" height="50" relative="1" as="geometry">
            <mxPoint x="505" y="1870" as="sourcePoint" />
            <mxPoint x="425" y="1950" as="targetPoint" />
          </mxGeometry>
        </mxCell>
        <mxCell id="Jusry1fd8HChnup1eYpJ-19" value="" style="endArrow=none;html=1;rounded=0;exitX=0;exitY=0;exitDx=0;exitDy=0;entryX=1;entryY=1;entryDx=0;entryDy=0;" edge="1" parent="1">
          <mxGeometry width="50" height="50" relative="1" as="geometry">
            <mxPoint x="425" y="1870" as="sourcePoint" />
            <mxPoint x="505" y="1950" as="targetPoint" />
          </mxGeometry>
        </mxCell>
        <mxCell id="Jusry1fd8HChnup1eYpJ-20" value="" style="whiteSpace=wrap;html=1;aspect=fixed;" vertex="1" parent="1">
          <mxGeometry x="570" y="1870" width="80" height="80" as="geometry" />
        </mxCell>
        <mxCell id="Jusry1fd8HChnup1eYpJ-21" value="button" style="rounded=1;whiteSpace=wrap;html=1;" vertex="1" parent="1">
          <mxGeometry x="570" y="1960" width="80" height="20" as="geometry" />
        </mxCell>
        <mxCell id="Jusry1fd8HChnup1eYpJ-22" value="" style="endArrow=none;html=1;rounded=0;exitX=1;exitY=0;exitDx=0;exitDy=0;entryX=0;entryY=1;entryDx=0;entryDy=0;" edge="1" parent="1">
          <mxGeometry width="50" height="50" relative="1" as="geometry">
            <mxPoint x="650" y="1870" as="sourcePoint" />
            <mxPoint x="570" y="1950" as="targetPoint" />
          </mxGeometry>
        </mxCell>
        <mxCell id="Jusry1fd8HChnup1eYpJ-23" value="" style="endArrow=none;html=1;rounded=0;exitX=0;exitY=0;exitDx=0;exitDy=0;entryX=1;entryY=1;entryDx=0;entryDy=0;" edge="1" parent="1">
          <mxGeometry width="50" height="50" relative="1" as="geometry">
            <mxPoint x="570" y="1870" as="sourcePoint" />
            <mxPoint x="650" y="1950" as="targetPoint" />
          </mxGeometry>
        </mxCell>
        <mxCell id="Jusry1fd8HChnup1eYpJ-28" value="" style="whiteSpace=wrap;html=1;aspect=fixed;" vertex="1" parent="1">
          <mxGeometry x="710" y="1870" width="80" height="80" as="geometry" />
        </mxCell>
        <mxCell id="Jusry1fd8HChnup1eYpJ-29" value="button" style="rounded=1;whiteSpace=wrap;html=1;" vertex="1" parent="1">
          <mxGeometry x="710" y="1960" width="80" height="20" as="geometry" />
        </mxCell>
        <mxCell id="Jusry1fd8HChnup1eYpJ-30" value="" style="endArrow=none;html=1;rounded=0;exitX=1;exitY=0;exitDx=0;exitDy=0;entryX=0;entryY=1;entryDx=0;entryDy=0;" edge="1" parent="1">
          <mxGeometry width="50" height="50" relative="1" as="geometry">
            <mxPoint x="790" y="1870" as="sourcePoint" />
            <mxPoint x="710" y="1950" as="targetPoint" />
          </mxGeometry>
        </mxCell>
        <mxCell id="Jusry1fd8HChnup1eYpJ-31" value="" style="endArrow=none;html=1;rounded=0;exitX=0;exitY=0;exitDx=0;exitDy=0;entryX=1;entryY=1;entryDx=0;entryDy=0;" edge="1" parent="1">
          <mxGeometry width="50" height="50" relative="1" as="geometry">
            <mxPoint x="710" y="1870" as="sourcePoint" />
            <mxPoint x="790" y="1950" as="targetPoint" />
          </mxGeometry>
        </mxCell>
        <mxCell id="Jusry1fd8HChnup1eYpJ-36" value="" style="whiteSpace=wrap;html=1;aspect=fixed;" vertex="1" parent="1">
          <mxGeometry x="830" y="1870" width="80" height="80" as="geometry" />
        </mxCell>
        <mxCell id="Jusry1fd8HChnup1eYpJ-37" value="button" style="rounded=1;whiteSpace=wrap;html=1;" vertex="1" parent="1">
          <mxGeometry x="830" y="1960" width="80" height="20" as="geometry" />
        </mxCell>
        <mxCell id="Jusry1fd8HChnup1eYpJ-38" value="" style="endArrow=none;html=1;rounded=0;exitX=1;exitY=0;exitDx=0;exitDy=0;entryX=0;entryY=1;entryDx=0;entryDy=0;" edge="1" parent="1">
          <mxGeometry width="50" height="50" relative="1" as="geometry">
            <mxPoint x="910" y="1870" as="sourcePoint" />
            <mxPoint x="830" y="1950" as="targetPoint" />
          </mxGeometry>
        </mxCell>
        <mxCell id="Jusry1fd8HChnup1eYpJ-39" value="" style="endArrow=none;html=1;rounded=0;exitX=0;exitY=0;exitDx=0;exitDy=0;entryX=1;entryY=1;entryDx=0;entryDy=0;" edge="1" parent="1">
          <mxGeometry width="50" height="50" relative="1" as="geometry">
            <mxPoint x="830" y="1870" as="sourcePoint" />
            <mxPoint x="910" y="1950" as="targetPoint" />
          </mxGeometry>
        </mxCell>
        <mxCell id="Jusry1fd8HChnup1eYpJ-40" value="" style="whiteSpace=wrap;html=1;aspect=fixed;" vertex="1" parent="1">
          <mxGeometry x="425" y="2030" width="80" height="80" as="geometry" />
        </mxCell>
        <mxCell id="Jusry1fd8HChnup1eYpJ-41" value="button" style="rounded=1;whiteSpace=wrap;html=1;" vertex="1" parent="1">
          <mxGeometry x="425" y="2120" width="80" height="20" as="geometry" />
        </mxCell>
        <mxCell id="Jusry1fd8HChnup1eYpJ-42" value="" style="endArrow=none;html=1;rounded=0;exitX=1;exitY=0;exitDx=0;exitDy=0;entryX=0;entryY=1;entryDx=0;entryDy=0;" edge="1" parent="1">
          <mxGeometry width="50" height="50" relative="1" as="geometry">
            <mxPoint x="505" y="2030" as="sourcePoint" />
            <mxPoint x="425" y="2110" as="targetPoint" />
          </mxGeometry>
        </mxCell>
        <mxCell id="Jusry1fd8HChnup1eYpJ-43" value="" style="endArrow=none;html=1;rounded=0;exitX=0;exitY=0;exitDx=0;exitDy=0;entryX=1;entryY=1;entryDx=0;entryDy=0;" edge="1" parent="1">
          <mxGeometry width="50" height="50" relative="1" as="geometry">
            <mxPoint x="425" y="2030" as="sourcePoint" />
            <mxPoint x="505" y="2110" as="targetPoint" />
          </mxGeometry>
        </mxCell>
        <mxCell id="Jusry1fd8HChnup1eYpJ-44" value="" style="whiteSpace=wrap;html=1;aspect=fixed;" vertex="1" parent="1">
          <mxGeometry x="570" y="2030" width="80" height="80" as="geometry" />
        </mxCell>
        <mxCell id="Jusry1fd8HChnup1eYpJ-45" value="button" style="rounded=1;whiteSpace=wrap;html=1;" vertex="1" parent="1">
          <mxGeometry x="570" y="2120" width="80" height="20" as="geometry" />
        </mxCell>
        <mxCell id="Jusry1fd8HChnup1eYpJ-46" value="" style="endArrow=none;html=1;rounded=0;exitX=1;exitY=0;exitDx=0;exitDy=0;entryX=0;entryY=1;entryDx=0;entryDy=0;" edge="1" parent="1">
          <mxGeometry width="50" height="50" relative="1" as="geometry">
            <mxPoint x="650" y="2030" as="sourcePoint" />
            <mxPoint x="570" y="2110" as="targetPoint" />
          </mxGeometry>
        </mxCell>
        <mxCell id="Jusry1fd8HChnup1eYpJ-47" value="" style="endArrow=none;html=1;rounded=0;exitX=0;exitY=0;exitDx=0;exitDy=0;entryX=1;entryY=1;entryDx=0;entryDy=0;" edge="1" parent="1">
          <mxGeometry width="50" height="50" relative="1" as="geometry">
            <mxPoint x="570" y="2030" as="sourcePoint" />
            <mxPoint x="650" y="2110" as="targetPoint" />
          </mxGeometry>
        </mxCell>
        <mxCell id="Jusry1fd8HChnup1eYpJ-48" value="" style="whiteSpace=wrap;html=1;aspect=fixed;" vertex="1" parent="1">
          <mxGeometry x="710" y="2030" width="80" height="80" as="geometry" />
        </mxCell>
        <mxCell id="Jusry1fd8HChnup1eYpJ-49" value="button" style="rounded=1;whiteSpace=wrap;html=1;" vertex="1" parent="1">
          <mxGeometry x="710" y="2120" width="80" height="20" as="geometry" />
        </mxCell>
        <mxCell id="Jusry1fd8HChnup1eYpJ-50" value="" style="endArrow=none;html=1;rounded=0;exitX=1;exitY=0;exitDx=0;exitDy=0;entryX=0;entryY=1;entryDx=0;entryDy=0;" edge="1" parent="1">
          <mxGeometry width="50" height="50" relative="1" as="geometry">
            <mxPoint x="790" y="2030" as="sourcePoint" />
            <mxPoint x="710" y="2110" as="targetPoint" />
          </mxGeometry>
        </mxCell>
        <mxCell id="Jusry1fd8HChnup1eYpJ-51" value="" style="endArrow=none;html=1;rounded=0;exitX=0;exitY=0;exitDx=0;exitDy=0;entryX=1;entryY=1;entryDx=0;entryDy=0;" edge="1" parent="1">
          <mxGeometry width="50" height="50" relative="1" as="geometry">
            <mxPoint x="710" y="2030" as="sourcePoint" />
            <mxPoint x="790" y="2110" as="targetPoint" />
          </mxGeometry>
        </mxCell>
        <mxCell id="Jusry1fd8HChnup1eYpJ-56" value="" style="whiteSpace=wrap;html=1;aspect=fixed;" vertex="1" parent="1">
          <mxGeometry x="830" y="2030" width="80" height="80" as="geometry" />
        </mxCell>
        <mxCell id="Jusry1fd8HChnup1eYpJ-57" value="button" style="rounded=1;whiteSpace=wrap;html=1;" vertex="1" parent="1">
          <mxGeometry x="830" y="2120" width="80" height="20" as="geometry" />
        </mxCell>
        <mxCell id="Jusry1fd8HChnup1eYpJ-58" value="" style="endArrow=none;html=1;rounded=0;exitX=1;exitY=0;exitDx=0;exitDy=0;entryX=0;entryY=1;entryDx=0;entryDy=0;" edge="1" parent="1">
          <mxGeometry width="50" height="50" relative="1" as="geometry">
            <mxPoint x="910" y="2030" as="sourcePoint" />
            <mxPoint x="830" y="2110" as="targetPoint" />
          </mxGeometry>
        </mxCell>
        <mxCell id="Jusry1fd8HChnup1eYpJ-59" value="" style="endArrow=none;html=1;rounded=0;exitX=0;exitY=0;exitDx=0;exitDy=0;entryX=1;entryY=1;entryDx=0;entryDy=0;" edge="1" parent="1">
          <mxGeometry width="50" height="50" relative="1" as="geometry">
            <mxPoint x="830" y="2030" as="sourcePoint" />
            <mxPoint x="910" y="2110" as="targetPoint" />
          </mxGeometry>
        </mxCell>
        <mxCell id="Jusry1fd8HChnup1eYpJ-60" value="footer" style="rounded=1;whiteSpace=wrap;html=1;" vertex="1" parent="1">
          <mxGeometry x="380" y="2150" width="620" height="30" as="geometry" />
        </mxCell>
        <mxCell id="Jusry1fd8HChnup1eYpJ-61" value="cart" style="ellipse;whiteSpace=wrap;html=1;aspect=fixed;" vertex="1" parent="1">
          <mxGeometry x="960" y="1575" width="30" height="30" as="geometry" />
        </mxCell>
        <mxCell id="Jusry1fd8HChnup1eYpJ-62" value="lorem" style="rounded=1;whiteSpace=wrap;html=1;" vertex="1" parent="1">
          <mxGeometry x="680" y="2220" width="80" height="20" as="geometry" />
        </mxCell>
        <mxCell id="Jusry1fd8HChnup1eYpJ-63" value="" style="whiteSpace=wrap;html=1;aspect=fixed;" vertex="1" parent="1">
          <mxGeometry x="380" y="2200" width="620" height="620" as="geometry" />
        </mxCell>
        <mxCell id="Jusry1fd8HChnup1eYpJ-64" value="" style="rounded=1;whiteSpace=wrap;html=1;" vertex="1" parent="1">
          <mxGeometry x="380" y="2200" width="620" height="60" as="geometry" />
        </mxCell>
        <mxCell id="Jusry1fd8HChnup1eYpJ-65" value="lorem" style="rounded=1;whiteSpace=wrap;html=1;" vertex="1" parent="1">
          <mxGeometry x="590" y="2220" width="80" height="20" as="geometry" />
        </mxCell>
        <mxCell id="Jusry1fd8HChnup1eYpJ-66" value="lorem" style="rounded=1;whiteSpace=wrap;html=1;" vertex="1" parent="1">
          <mxGeometry x="500" y="2220" width="80" height="20" as="geometry" />
        </mxCell>
        <mxCell id="Jusry1fd8HChnup1eYpJ-67" value="lorem" style="rounded=1;whiteSpace=wrap;html=1;" vertex="1" parent="1">
          <mxGeometry x="400" y="2220" width="80" height="20" as="geometry" />
        </mxCell>
        <mxCell id="Jusry1fd8HChnup1eYpJ-68" value="lorem" style="rounded=1;whiteSpace=wrap;html=1;" vertex="1" parent="1">
          <mxGeometry x="780" y="2220" width="80" height="20" as="geometry" />
        </mxCell>
        <mxCell id="Jusry1fd8HChnup1eYpJ-69" value="lorem" style="rounded=1;whiteSpace=wrap;html=1;" vertex="1" parent="1">
          <mxGeometry x="680" y="2220" width="80" height="20" as="geometry" />
        </mxCell>
        <mxCell id="Jusry1fd8HChnup1eYpJ-70" value="lorem" style="rounded=1;whiteSpace=wrap;html=1;" vertex="1" parent="1">
          <mxGeometry x="870" y="2220" width="80" height="20" as="geometry" />
        </mxCell>
        <mxCell id="Jusry1fd8HChnup1eYpJ-71" value="lorem" style="rounded=1;whiteSpace=wrap;html=1;" vertex="1" parent="1">
          <mxGeometry x="610" y="2290" width="130" height="40" as="geometry" />
        </mxCell>
        <mxCell id="Jusry1fd8HChnup1eYpJ-75" value="" style="whiteSpace=wrap;html=1;aspect=fixed;" vertex="1" parent="1">
          <mxGeometry x="432.5" y="2390" width="80" height="80" as="geometry" />
        </mxCell>
        <mxCell id="Jusry1fd8HChnup1eYpJ-76" value="button" style="rounded=1;whiteSpace=wrap;html=1;" vertex="1" parent="1">
          <mxGeometry x="432.5" y="2480" width="80" height="20" as="geometry" />
        </mxCell>
        <mxCell id="Jusry1fd8HChnup1eYpJ-77" value="" style="endArrow=none;html=1;rounded=0;exitX=1;exitY=0;exitDx=0;exitDy=0;entryX=0;entryY=1;entryDx=0;entryDy=0;" edge="1" parent="1">
          <mxGeometry width="50" height="50" relative="1" as="geometry">
            <mxPoint x="512.5" y="2390" as="sourcePoint" />
            <mxPoint x="432.5" y="2470" as="targetPoint" />
          </mxGeometry>
        </mxCell>
        <mxCell id="Jusry1fd8HChnup1eYpJ-78" value="" style="endArrow=none;html=1;rounded=0;exitX=0;exitY=0;exitDx=0;exitDy=0;entryX=1;entryY=1;entryDx=0;entryDy=0;" edge="1" parent="1">
          <mxGeometry width="50" height="50" relative="1" as="geometry">
            <mxPoint x="432.5" y="2390" as="sourcePoint" />
            <mxPoint x="512.5" y="2470" as="targetPoint" />
          </mxGeometry>
        </mxCell>
        <mxCell id="Jusry1fd8HChnup1eYpJ-79" value="" style="whiteSpace=wrap;html=1;aspect=fixed;" vertex="1" parent="1">
          <mxGeometry x="577.5" y="2390" width="80" height="80" as="geometry" />
        </mxCell>
        <mxCell id="Jusry1fd8HChnup1eYpJ-80" value="button" style="rounded=1;whiteSpace=wrap;html=1;" vertex="1" parent="1">
          <mxGeometry x="577.5" y="2480" width="80" height="20" as="geometry" />
        </mxCell>
        <mxCell id="Jusry1fd8HChnup1eYpJ-81" value="" style="endArrow=none;html=1;rounded=0;exitX=1;exitY=0;exitDx=0;exitDy=0;entryX=0;entryY=1;entryDx=0;entryDy=0;" edge="1" parent="1">
          <mxGeometry width="50" height="50" relative="1" as="geometry">
            <mxPoint x="657.5" y="2390" as="sourcePoint" />
            <mxPoint x="577.5" y="2470" as="targetPoint" />
          </mxGeometry>
        </mxCell>
        <mxCell id="Jusry1fd8HChnup1eYpJ-82" value="" style="endArrow=none;html=1;rounded=0;exitX=0;exitY=0;exitDx=0;exitDy=0;entryX=1;entryY=1;entryDx=0;entryDy=0;" edge="1" parent="1">
          <mxGeometry width="50" height="50" relative="1" as="geometry">
            <mxPoint x="577.5" y="2390" as="sourcePoint" />
            <mxPoint x="657.5" y="2470" as="targetPoint" />
          </mxGeometry>
        </mxCell>
        <mxCell id="Jusry1fd8HChnup1eYpJ-83" value="" style="whiteSpace=wrap;html=1;aspect=fixed;" vertex="1" parent="1">
          <mxGeometry x="717.5" y="2390" width="80" height="80" as="geometry" />
        </mxCell>
        <mxCell id="Jusry1fd8HChnup1eYpJ-84" value="button" style="rounded=1;whiteSpace=wrap;html=1;" vertex="1" parent="1">
          <mxGeometry x="717.5" y="2480" width="80" height="20" as="geometry" />
        </mxCell>
        <mxCell id="Jusry1fd8HChnup1eYpJ-85" value="" style="endArrow=none;html=1;rounded=0;exitX=1;exitY=0;exitDx=0;exitDy=0;entryX=0;entryY=1;entryDx=0;entryDy=0;" edge="1" parent="1">
          <mxGeometry width="50" height="50" relative="1" as="geometry">
            <mxPoint x="797.5" y="2390" as="sourcePoint" />
            <mxPoint x="717.5" y="2470" as="targetPoint" />
          </mxGeometry>
        </mxCell>
        <mxCell id="Jusry1fd8HChnup1eYpJ-86" value="" style="endArrow=none;html=1;rounded=0;exitX=0;exitY=0;exitDx=0;exitDy=0;entryX=1;entryY=1;entryDx=0;entryDy=0;" edge="1" parent="1">
          <mxGeometry width="50" height="50" relative="1" as="geometry">
            <mxPoint x="717.5" y="2390" as="sourcePoint" />
            <mxPoint x="797.5" y="2470" as="targetPoint" />
          </mxGeometry>
        </mxCell>
        <mxCell id="Jusry1fd8HChnup1eYpJ-87" value="" style="whiteSpace=wrap;html=1;aspect=fixed;" vertex="1" parent="1">
          <mxGeometry x="837.5" y="2390" width="80" height="80" as="geometry" />
        </mxCell>
        <mxCell id="Jusry1fd8HChnup1eYpJ-88" value="button" style="rounded=1;whiteSpace=wrap;html=1;" vertex="1" parent="1">
          <mxGeometry x="837.5" y="2480" width="80" height="20" as="geometry" />
        </mxCell>
        <mxCell id="Jusry1fd8HChnup1eYpJ-89" value="" style="endArrow=none;html=1;rounded=0;exitX=1;exitY=0;exitDx=0;exitDy=0;entryX=0;entryY=1;entryDx=0;entryDy=0;" edge="1" parent="1">
          <mxGeometry width="50" height="50" relative="1" as="geometry">
            <mxPoint x="917.5" y="2390" as="sourcePoint" />
            <mxPoint x="837.5" y="2470" as="targetPoint" />
          </mxGeometry>
        </mxCell>
        <mxCell id="Jusry1fd8HChnup1eYpJ-90" value="" style="endArrow=none;html=1;rounded=0;exitX=0;exitY=0;exitDx=0;exitDy=0;entryX=1;entryY=1;entryDx=0;entryDy=0;" edge="1" parent="1">
          <mxGeometry width="50" height="50" relative="1" as="geometry">
            <mxPoint x="837.5" y="2390" as="sourcePoint" />
            <mxPoint x="917.5" y="2470" as="targetPoint" />
          </mxGeometry>
        </mxCell>
        <mxCell id="Jusry1fd8HChnup1eYpJ-91" value="" style="whiteSpace=wrap;html=1;aspect=fixed;" vertex="1" parent="1">
          <mxGeometry x="432.5" y="2550" width="80" height="80" as="geometry" />
        </mxCell>
        <mxCell id="Jusry1fd8HChnup1eYpJ-92" value="button" style="rounded=1;whiteSpace=wrap;html=1;" vertex="1" parent="1">
          <mxGeometry x="432.5" y="2650" width="80" height="20" as="geometry" />
        </mxCell>
        <mxCell id="Jusry1fd8HChnup1eYpJ-93" value="" style="endArrow=none;html=1;rounded=0;exitX=1;exitY=0;exitDx=0;exitDy=0;entryX=0;entryY=1;entryDx=0;entryDy=0;" edge="1" parent="1">
          <mxGeometry width="50" height="50" relative="1" as="geometry">
            <mxPoint x="512.5" y="2550" as="sourcePoint" />
            <mxPoint x="432.5" y="2630" as="targetPoint" />
          </mxGeometry>
        </mxCell>
        <mxCell id="Jusry1fd8HChnup1eYpJ-94" value="" style="endArrow=none;html=1;rounded=0;exitX=0;exitY=0;exitDx=0;exitDy=0;entryX=1;entryY=1;entryDx=0;entryDy=0;" edge="1" parent="1">
          <mxGeometry width="50" height="50" relative="1" as="geometry">
            <mxPoint x="432.5" y="2550" as="sourcePoint" />
            <mxPoint x="512.5" y="2630" as="targetPoint" />
          </mxGeometry>
        </mxCell>
        <mxCell id="Jusry1fd8HChnup1eYpJ-95" value="" style="whiteSpace=wrap;html=1;aspect=fixed;" vertex="1" parent="1">
          <mxGeometry x="577.5" y="2550" width="80" height="80" as="geometry" />
        </mxCell>
        <mxCell id="Jusry1fd8HChnup1eYpJ-96" value="button" style="rounded=1;whiteSpace=wrap;html=1;" vertex="1" parent="1">
          <mxGeometry x="577.5" y="2650" width="80" height="20" as="geometry" />
        </mxCell>
        <mxCell id="Jusry1fd8HChnup1eYpJ-97" value="" style="endArrow=none;html=1;rounded=0;exitX=1;exitY=0;exitDx=0;exitDy=0;entryX=0;entryY=1;entryDx=0;entryDy=0;" edge="1" parent="1">
          <mxGeometry width="50" height="50" relative="1" as="geometry">
            <mxPoint x="657.5" y="2550" as="sourcePoint" />
            <mxPoint x="577.5" y="2630" as="targetPoint" />
          </mxGeometry>
        </mxCell>
        <mxCell id="Jusry1fd8HChnup1eYpJ-98" value="" style="endArrow=none;html=1;rounded=0;exitX=0;exitY=0;exitDx=0;exitDy=0;entryX=1;entryY=1;entryDx=0;entryDy=0;" edge="1" parent="1">
          <mxGeometry width="50" height="50" relative="1" as="geometry">
            <mxPoint x="577.5" y="2550" as="sourcePoint" />
            <mxPoint x="657.5" y="2630" as="targetPoint" />
          </mxGeometry>
        </mxCell>
        <mxCell id="Jusry1fd8HChnup1eYpJ-99" value="" style="whiteSpace=wrap;html=1;aspect=fixed;" vertex="1" parent="1">
          <mxGeometry x="717.5" y="2550" width="80" height="80" as="geometry" />
        </mxCell>
        <mxCell id="Jusry1fd8HChnup1eYpJ-100" value="button" style="rounded=1;whiteSpace=wrap;html=1;" vertex="1" parent="1">
          <mxGeometry x="717.5" y="2650" width="80" height="20" as="geometry" />
        </mxCell>
        <mxCell id="Jusry1fd8HChnup1eYpJ-101" value="" style="endArrow=none;html=1;rounded=0;exitX=1;exitY=0;exitDx=0;exitDy=0;entryX=0;entryY=1;entryDx=0;entryDy=0;" edge="1" parent="1">
          <mxGeometry width="50" height="50" relative="1" as="geometry">
            <mxPoint x="797.5" y="2550" as="sourcePoint" />
            <mxPoint x="717.5" y="2630" as="targetPoint" />
          </mxGeometry>
        </mxCell>
        <mxCell id="Jusry1fd8HChnup1eYpJ-102" value="" style="endArrow=none;html=1;rounded=0;exitX=0;exitY=0;exitDx=0;exitDy=0;entryX=1;entryY=1;entryDx=0;entryDy=0;" edge="1" parent="1">
          <mxGeometry width="50" height="50" relative="1" as="geometry">
            <mxPoint x="717.5" y="2550" as="sourcePoint" />
            <mxPoint x="797.5" y="2630" as="targetPoint" />
          </mxGeometry>
        </mxCell>
        <mxCell id="Jusry1fd8HChnup1eYpJ-103" value="" style="whiteSpace=wrap;html=1;aspect=fixed;" vertex="1" parent="1">
          <mxGeometry x="837.5" y="2550" width="80" height="80" as="geometry" />
        </mxCell>
        <mxCell id="Jusry1fd8HChnup1eYpJ-104" value="button" style="rounded=1;whiteSpace=wrap;html=1;" vertex="1" parent="1">
          <mxGeometry x="837.5" y="2650" width="80" height="20" as="geometry" />
        </mxCell>
        <mxCell id="Jusry1fd8HChnup1eYpJ-105" value="" style="endArrow=none;html=1;rounded=0;exitX=1;exitY=0;exitDx=0;exitDy=0;entryX=0;entryY=1;entryDx=0;entryDy=0;" edge="1" parent="1">
          <mxGeometry width="50" height="50" relative="1" as="geometry">
            <mxPoint x="917.5" y="2550" as="sourcePoint" />
            <mxPoint x="837.5" y="2630" as="targetPoint" />
          </mxGeometry>
        </mxCell>
        <mxCell id="Jusry1fd8HChnup1eYpJ-106" value="" style="endArrow=none;html=1;rounded=0;exitX=0;exitY=0;exitDx=0;exitDy=0;entryX=1;entryY=1;entryDx=0;entryDy=0;" edge="1" parent="1">
          <mxGeometry width="50" height="50" relative="1" as="geometry">
            <mxPoint x="837.5" y="2550" as="sourcePoint" />
            <mxPoint x="917.5" y="2630" as="targetPoint" />
          </mxGeometry>
        </mxCell>
        <mxCell id="Jusry1fd8HChnup1eYpJ-107" value="footer" style="rounded=1;whiteSpace=wrap;html=1;" vertex="1" parent="1">
          <mxGeometry x="380" y="2790" width="620" height="30" as="geometry" />
        </mxCell>
        <mxCell id="Jusry1fd8HChnup1eYpJ-108" value="cart" style="ellipse;whiteSpace=wrap;html=1;aspect=fixed;" vertex="1" parent="1">
          <mxGeometry x="960" y="2215" width="30" height="30" as="geometry" />
        </mxCell>
        <mxCell id="Jusry1fd8HChnup1eYpJ-109" value="lorem" style="rounded=1;whiteSpace=wrap;html=1;" vertex="1" parent="1">
          <mxGeometry x="680" y="2850" width="80" height="20" as="geometry" />
        </mxCell>
        <mxCell id="Jusry1fd8HChnup1eYpJ-110" value="" style="whiteSpace=wrap;html=1;aspect=fixed;" vertex="1" parent="1">
          <mxGeometry x="380" y="2830" width="640" height="640" as="geometry" />
        </mxCell>
        <mxCell id="Jusry1fd8HChnup1eYpJ-111" value="" style="rounded=1;whiteSpace=wrap;html=1;" vertex="1" parent="1">
          <mxGeometry x="380" y="2830" width="640" height="60" as="geometry" />
        </mxCell>
        <mxCell id="Jusry1fd8HChnup1eYpJ-112" value="lorem" style="rounded=1;whiteSpace=wrap;html=1;" vertex="1" parent="1">
          <mxGeometry x="590" y="2850" width="80" height="20" as="geometry" />
        </mxCell>
        <mxCell id="Jusry1fd8HChnup1eYpJ-113" value="lorem" style="rounded=1;whiteSpace=wrap;html=1;" vertex="1" parent="1">
          <mxGeometry x="500" y="2850" width="80" height="20" as="geometry" />
        </mxCell>
        <mxCell id="Jusry1fd8HChnup1eYpJ-114" value="lorem" style="rounded=1;whiteSpace=wrap;html=1;" vertex="1" parent="1">
          <mxGeometry x="400" y="2850" width="80" height="20" as="geometry" />
        </mxCell>
        <mxCell id="Jusry1fd8HChnup1eYpJ-115" value="lorem" style="rounded=1;whiteSpace=wrap;html=1;" vertex="1" parent="1">
          <mxGeometry x="780" y="2850" width="80" height="20" as="geometry" />
        </mxCell>
        <mxCell id="Jusry1fd8HChnup1eYpJ-116" value="lorem" style="rounded=1;whiteSpace=wrap;html=1;" vertex="1" parent="1">
          <mxGeometry x="680" y="2850" width="80" height="20" as="geometry" />
        </mxCell>
        <mxCell id="Jusry1fd8HChnup1eYpJ-117" value="lorem" style="rounded=1;whiteSpace=wrap;html=1;" vertex="1" parent="1">
          <mxGeometry x="870" y="2850" width="80" height="20" as="geometry" />
        </mxCell>
        <mxCell id="Jusry1fd8HChnup1eYpJ-118" value="lorem" style="rounded=1;whiteSpace=wrap;html=1;" vertex="1" parent="1">
          <mxGeometry x="610" y="2920" width="130" height="40" as="geometry" />
        </mxCell>
        <mxCell id="Jusry1fd8HChnup1eYpJ-119" value="" style="whiteSpace=wrap;html=1;aspect=fixed;" vertex="1" parent="1">
          <mxGeometry x="432.5" y="3020" width="80" height="80" as="geometry" />
        </mxCell>
        <mxCell id="Jusry1fd8HChnup1eYpJ-120" value="button" style="rounded=1;whiteSpace=wrap;html=1;" vertex="1" parent="1">
          <mxGeometry x="432.5" y="3110" width="80" height="20" as="geometry" />
        </mxCell>
        <mxCell id="Jusry1fd8HChnup1eYpJ-121" value="" style="endArrow=none;html=1;rounded=0;exitX=1;exitY=0;exitDx=0;exitDy=0;entryX=0;entryY=1;entryDx=0;entryDy=0;" edge="1" parent="1">
          <mxGeometry width="50" height="50" relative="1" as="geometry">
            <mxPoint x="512.5" y="3020" as="sourcePoint" />
            <mxPoint x="432.5" y="3100" as="targetPoint" />
          </mxGeometry>
        </mxCell>
        <mxCell id="Jusry1fd8HChnup1eYpJ-122" value="" style="endArrow=none;html=1;rounded=0;exitX=0;exitY=0;exitDx=0;exitDy=0;entryX=1;entryY=1;entryDx=0;entryDy=0;" edge="1" parent="1">
          <mxGeometry width="50" height="50" relative="1" as="geometry">
            <mxPoint x="432.5" y="3020" as="sourcePoint" />
            <mxPoint x="512.5" y="3100" as="targetPoint" />
          </mxGeometry>
        </mxCell>
        <mxCell id="Jusry1fd8HChnup1eYpJ-123" value="" style="whiteSpace=wrap;html=1;aspect=fixed;" vertex="1" parent="1">
          <mxGeometry x="577.5" y="3020" width="80" height="80" as="geometry" />
        </mxCell>
        <mxCell id="Jusry1fd8HChnup1eYpJ-124" value="button" style="rounded=1;whiteSpace=wrap;html=1;" vertex="1" parent="1">
          <mxGeometry x="577.5" y="3110" width="80" height="20" as="geometry" />
        </mxCell>
        <mxCell id="Jusry1fd8HChnup1eYpJ-125" value="" style="endArrow=none;html=1;rounded=0;exitX=1;exitY=0;exitDx=0;exitDy=0;entryX=0;entryY=1;entryDx=0;entryDy=0;" edge="1" parent="1">
          <mxGeometry width="50" height="50" relative="1" as="geometry">
            <mxPoint x="657.5" y="3020" as="sourcePoint" />
            <mxPoint x="577.5" y="3100" as="targetPoint" />
          </mxGeometry>
        </mxCell>
        <mxCell id="Jusry1fd8HChnup1eYpJ-126" value="" style="endArrow=none;html=1;rounded=0;exitX=0;exitY=0;exitDx=0;exitDy=0;entryX=1;entryY=1;entryDx=0;entryDy=0;" edge="1" parent="1">
          <mxGeometry width="50" height="50" relative="1" as="geometry">
            <mxPoint x="577.5" y="3020" as="sourcePoint" />
            <mxPoint x="657.5" y="3100" as="targetPoint" />
          </mxGeometry>
        </mxCell>
        <mxCell id="Jusry1fd8HChnup1eYpJ-127" value="" style="whiteSpace=wrap;html=1;aspect=fixed;" vertex="1" parent="1">
          <mxGeometry x="717.5" y="3020" width="80" height="80" as="geometry" />
        </mxCell>
        <mxCell id="Jusry1fd8HChnup1eYpJ-128" value="button" style="rounded=1;whiteSpace=wrap;html=1;" vertex="1" parent="1">
          <mxGeometry x="717.5" y="3110" width="80" height="20" as="geometry" />
        </mxCell>
        <mxCell id="Jusry1fd8HChnup1eYpJ-129" value="" style="endArrow=none;html=1;rounded=0;exitX=1;exitY=0;exitDx=0;exitDy=0;entryX=0;entryY=1;entryDx=0;entryDy=0;" edge="1" parent="1">
          <mxGeometry width="50" height="50" relative="1" as="geometry">
            <mxPoint x="797.5" y="3020" as="sourcePoint" />
            <mxPoint x="717.5" y="3100" as="targetPoint" />
          </mxGeometry>
        </mxCell>
        <mxCell id="Jusry1fd8HChnup1eYpJ-130" value="" style="endArrow=none;html=1;rounded=0;exitX=0;exitY=0;exitDx=0;exitDy=0;entryX=1;entryY=1;entryDx=0;entryDy=0;" edge="1" parent="1">
          <mxGeometry width="50" height="50" relative="1" as="geometry">
            <mxPoint x="717.5" y="3020" as="sourcePoint" />
            <mxPoint x="797.5" y="3100" as="targetPoint" />
          </mxGeometry>
        </mxCell>
        <mxCell id="Jusry1fd8HChnup1eYpJ-131" value="" style="whiteSpace=wrap;html=1;aspect=fixed;" vertex="1" parent="1">
          <mxGeometry x="837.5" y="3020" width="80" height="80" as="geometry" />
        </mxCell>
        <mxCell id="Jusry1fd8HChnup1eYpJ-132" value="button" style="rounded=1;whiteSpace=wrap;html=1;" vertex="1" parent="1">
          <mxGeometry x="837.5" y="3110" width="80" height="20" as="geometry" />
        </mxCell>
        <mxCell id="Jusry1fd8HChnup1eYpJ-133" value="" style="endArrow=none;html=1;rounded=0;exitX=1;exitY=0;exitDx=0;exitDy=0;entryX=0;entryY=1;entryDx=0;entryDy=0;" edge="1" parent="1">
          <mxGeometry width="50" height="50" relative="1" as="geometry">
            <mxPoint x="917.5" y="3020" as="sourcePoint" />
            <mxPoint x="837.5" y="3100" as="targetPoint" />
          </mxGeometry>
        </mxCell>
        <mxCell id="Jusry1fd8HChnup1eYpJ-134" value="" style="endArrow=none;html=1;rounded=0;exitX=0;exitY=0;exitDx=0;exitDy=0;entryX=1;entryY=1;entryDx=0;entryDy=0;" edge="1" parent="1">
          <mxGeometry width="50" height="50" relative="1" as="geometry">
            <mxPoint x="837.5" y="3020" as="sourcePoint" />
            <mxPoint x="917.5" y="3100" as="targetPoint" />
          </mxGeometry>
        </mxCell>
        <mxCell id="Jusry1fd8HChnup1eYpJ-135" value="" style="whiteSpace=wrap;html=1;aspect=fixed;" vertex="1" parent="1">
          <mxGeometry x="432.5" y="3180" width="80" height="80" as="geometry" />
        </mxCell>
        <mxCell id="Jusry1fd8HChnup1eYpJ-136" value="button" style="rounded=1;whiteSpace=wrap;html=1;" vertex="1" parent="1">
          <mxGeometry x="432.5" y="3280" width="80" height="20" as="geometry" />
        </mxCell>
        <mxCell id="Jusry1fd8HChnup1eYpJ-137" value="" style="endArrow=none;html=1;rounded=0;exitX=1;exitY=0;exitDx=0;exitDy=0;entryX=0;entryY=1;entryDx=0;entryDy=0;" edge="1" parent="1">
          <mxGeometry width="50" height="50" relative="1" as="geometry">
            <mxPoint x="512.5" y="3180" as="sourcePoint" />
            <mxPoint x="432.5" y="3260" as="targetPoint" />
          </mxGeometry>
        </mxCell>
        <mxCell id="Jusry1fd8HChnup1eYpJ-138" value="" style="endArrow=none;html=1;rounded=0;exitX=0;exitY=0;exitDx=0;exitDy=0;entryX=1;entryY=1;entryDx=0;entryDy=0;" edge="1" parent="1">
          <mxGeometry width="50" height="50" relative="1" as="geometry">
            <mxPoint x="432.5" y="3180" as="sourcePoint" />
            <mxPoint x="512.5" y="3260" as="targetPoint" />
          </mxGeometry>
        </mxCell>
        <mxCell id="Jusry1fd8HChnup1eYpJ-139" value="" style="whiteSpace=wrap;html=1;aspect=fixed;" vertex="1" parent="1">
          <mxGeometry x="577.5" y="3180" width="80" height="80" as="geometry" />
        </mxCell>
        <mxCell id="Jusry1fd8HChnup1eYpJ-140" value="button" style="rounded=1;whiteSpace=wrap;html=1;" vertex="1" parent="1">
          <mxGeometry x="577.5" y="3280" width="80" height="20" as="geometry" />
        </mxCell>
        <mxCell id="Jusry1fd8HChnup1eYpJ-141" value="" style="endArrow=none;html=1;rounded=0;exitX=1;exitY=0;exitDx=0;exitDy=0;entryX=0;entryY=1;entryDx=0;entryDy=0;" edge="1" parent="1">
          <mxGeometry width="50" height="50" relative="1" as="geometry">
            <mxPoint x="657.5" y="3180" as="sourcePoint" />
            <mxPoint x="577.5" y="3260" as="targetPoint" />
          </mxGeometry>
        </mxCell>
        <mxCell id="Jusry1fd8HChnup1eYpJ-142" value="" style="endArrow=none;html=1;rounded=0;exitX=0;exitY=0;exitDx=0;exitDy=0;entryX=1;entryY=1;entryDx=0;entryDy=0;" edge="1" parent="1">
          <mxGeometry width="50" height="50" relative="1" as="geometry">
            <mxPoint x="577.5" y="3180" as="sourcePoint" />
            <mxPoint x="657.5" y="3260" as="targetPoint" />
          </mxGeometry>
        </mxCell>
        <mxCell id="Jusry1fd8HChnup1eYpJ-143" value="" style="whiteSpace=wrap;html=1;aspect=fixed;" vertex="1" parent="1">
          <mxGeometry x="717.5" y="3180" width="80" height="80" as="geometry" />
        </mxCell>
        <mxCell id="Jusry1fd8HChnup1eYpJ-144" value="button" style="rounded=1;whiteSpace=wrap;html=1;" vertex="1" parent="1">
          <mxGeometry x="717.5" y="3280" width="80" height="20" as="geometry" />
        </mxCell>
        <mxCell id="Jusry1fd8HChnup1eYpJ-145" value="" style="endArrow=none;html=1;rounded=0;exitX=1;exitY=0;exitDx=0;exitDy=0;entryX=0;entryY=1;entryDx=0;entryDy=0;" edge="1" parent="1">
          <mxGeometry width="50" height="50" relative="1" as="geometry">
            <mxPoint x="797.5" y="3180" as="sourcePoint" />
            <mxPoint x="717.5" y="3260" as="targetPoint" />
          </mxGeometry>
        </mxCell>
        <mxCell id="Jusry1fd8HChnup1eYpJ-146" value="" style="endArrow=none;html=1;rounded=0;exitX=0;exitY=0;exitDx=0;exitDy=0;entryX=1;entryY=1;entryDx=0;entryDy=0;" edge="1" parent="1">
          <mxGeometry width="50" height="50" relative="1" as="geometry">
            <mxPoint x="717.5" y="3180" as="sourcePoint" />
            <mxPoint x="797.5" y="3260" as="targetPoint" />
          </mxGeometry>
        </mxCell>
        <mxCell id="Jusry1fd8HChnup1eYpJ-147" value="" style="whiteSpace=wrap;html=1;aspect=fixed;" vertex="1" parent="1">
          <mxGeometry x="837.5" y="3180" width="80" height="80" as="geometry" />
        </mxCell>
        <mxCell id="Jusry1fd8HChnup1eYpJ-148" value="button" style="rounded=1;whiteSpace=wrap;html=1;" vertex="1" parent="1">
          <mxGeometry x="837.5" y="3280" width="80" height="20" as="geometry" />
        </mxCell>
        <mxCell id="Jusry1fd8HChnup1eYpJ-149" value="" style="endArrow=none;html=1;rounded=0;exitX=1;exitY=0;exitDx=0;exitDy=0;entryX=0;entryY=1;entryDx=0;entryDy=0;" edge="1" parent="1">
          <mxGeometry width="50" height="50" relative="1" as="geometry">
            <mxPoint x="917.5" y="3180" as="sourcePoint" />
            <mxPoint x="837.5" y="3260" as="targetPoint" />
          </mxGeometry>
        </mxCell>
        <mxCell id="Jusry1fd8HChnup1eYpJ-150" value="" style="endArrow=none;html=1;rounded=0;exitX=0;exitY=0;exitDx=0;exitDy=0;entryX=1;entryY=1;entryDx=0;entryDy=0;" edge="1" parent="1">
          <mxGeometry width="50" height="50" relative="1" as="geometry">
            <mxPoint x="837.5" y="3180" as="sourcePoint" />
            <mxPoint x="917.5" y="3260" as="targetPoint" />
          </mxGeometry>
        </mxCell>
        <mxCell id="Jusry1fd8HChnup1eYpJ-151" value="footer" style="rounded=1;whiteSpace=wrap;html=1;" vertex="1" parent="1">
          <mxGeometry x="380" y="3440" width="640" height="30" as="geometry" />
        </mxCell>
        <mxCell id="Jusry1fd8HChnup1eYpJ-152" value="cart" style="ellipse;whiteSpace=wrap;html=1;aspect=fixed;" vertex="1" parent="1">
          <mxGeometry x="960" y="2845" width="30" height="30" as="geometry" />
        </mxCell>
        <mxCell id="Jusry1fd8HChnup1eYpJ-153" value="lorem" style="rounded=1;whiteSpace=wrap;html=1;" vertex="1" parent="1">
          <mxGeometry x="620" y="2970" width="110" height="30" as="geometry" />
        </mxCell>
        <mxCell id="Jusry1fd8HChnup1eYpJ-154" value="" style="whiteSpace=wrap;html=1;aspect=fixed;" vertex="1" parent="1">
          <mxGeometry x="432.5" y="3320" width="80" height="80" as="geometry" />
        </mxCell>
        <mxCell id="Jusry1fd8HChnup1eYpJ-155" value="button" style="rounded=1;whiteSpace=wrap;html=1;" vertex="1" parent="1">
          <mxGeometry x="432.5" y="3410" width="80" height="20" as="geometry" />
        </mxCell>
        <mxCell id="Jusry1fd8HChnup1eYpJ-156" value="" style="endArrow=none;html=1;rounded=0;exitX=1;exitY=0;exitDx=0;exitDy=0;entryX=0;entryY=1;entryDx=0;entryDy=0;" edge="1" parent="1">
          <mxGeometry width="50" height="50" relative="1" as="geometry">
            <mxPoint x="512.5" y="3320" as="sourcePoint" />
            <mxPoint x="432.5" y="3400" as="targetPoint" />
          </mxGeometry>
        </mxCell>
        <mxCell id="Jusry1fd8HChnup1eYpJ-157" value="" style="endArrow=none;html=1;rounded=0;exitX=0;exitY=0;exitDx=0;exitDy=0;entryX=1;entryY=1;entryDx=0;entryDy=0;" edge="1" parent="1">
          <mxGeometry width="50" height="50" relative="1" as="geometry">
            <mxPoint x="432.5" y="3320" as="sourcePoint" />
            <mxPoint x="512.5" y="3400" as="targetPoint" />
          </mxGeometry>
        </mxCell>
        <mxCell id="Jusry1fd8HChnup1eYpJ-158" value="" style="whiteSpace=wrap;html=1;aspect=fixed;" vertex="1" parent="1">
          <mxGeometry x="577.5" y="3320" width="80" height="80" as="geometry" />
        </mxCell>
        <mxCell id="Jusry1fd8HChnup1eYpJ-159" value="button" style="rounded=1;whiteSpace=wrap;html=1;" vertex="1" parent="1">
          <mxGeometry x="577.5" y="3410" width="80" height="20" as="geometry" />
        </mxCell>
        <mxCell id="Jusry1fd8HChnup1eYpJ-160" value="" style="endArrow=none;html=1;rounded=0;exitX=1;exitY=0;exitDx=0;exitDy=0;entryX=0;entryY=1;entryDx=0;entryDy=0;" edge="1" parent="1">
          <mxGeometry width="50" height="50" relative="1" as="geometry">
            <mxPoint x="657.5" y="3320" as="sourcePoint" />
            <mxPoint x="577.5" y="3400" as="targetPoint" />
          </mxGeometry>
        </mxCell>
        <mxCell id="Jusry1fd8HChnup1eYpJ-161" value="" style="endArrow=none;html=1;rounded=0;exitX=0;exitY=0;exitDx=0;exitDy=0;entryX=1;entryY=1;entryDx=0;entryDy=0;" edge="1" parent="1">
          <mxGeometry width="50" height="50" relative="1" as="geometry">
            <mxPoint x="577.5" y="3320" as="sourcePoint" />
            <mxPoint x="657.5" y="3400" as="targetPoint" />
          </mxGeometry>
        </mxCell>
        <mxCell id="Jusry1fd8HChnup1eYpJ-162" value="" style="whiteSpace=wrap;html=1;aspect=fixed;" vertex="1" parent="1">
          <mxGeometry x="717.5" y="3320" width="80" height="80" as="geometry" />
        </mxCell>
        <mxCell id="Jusry1fd8HChnup1eYpJ-163" value="button" style="rounded=1;whiteSpace=wrap;html=1;" vertex="1" parent="1">
          <mxGeometry x="717.5" y="3410" width="80" height="20" as="geometry" />
        </mxCell>
        <mxCell id="Jusry1fd8HChnup1eYpJ-164" value="" style="endArrow=none;html=1;rounded=0;exitX=1;exitY=0;exitDx=0;exitDy=0;entryX=0;entryY=1;entryDx=0;entryDy=0;" edge="1" parent="1">
          <mxGeometry width="50" height="50" relative="1" as="geometry">
            <mxPoint x="797.5" y="3320" as="sourcePoint" />
            <mxPoint x="717.5" y="3400" as="targetPoint" />
          </mxGeometry>
        </mxCell>
        <mxCell id="Jusry1fd8HChnup1eYpJ-165" value="" style="endArrow=none;html=1;rounded=0;exitX=0;exitY=0;exitDx=0;exitDy=0;entryX=1;entryY=1;entryDx=0;entryDy=0;" edge="1" parent="1">
          <mxGeometry width="50" height="50" relative="1" as="geometry">
            <mxPoint x="717.5" y="3320" as="sourcePoint" />
            <mxPoint x="797.5" y="3400" as="targetPoint" />
          </mxGeometry>
        </mxCell>
        <mxCell id="Jusry1fd8HChnup1eYpJ-166" value="" style="whiteSpace=wrap;html=1;aspect=fixed;" vertex="1" parent="1">
          <mxGeometry x="837.5" y="3320" width="80" height="80" as="geometry" />
        </mxCell>
        <mxCell id="Jusry1fd8HChnup1eYpJ-167" value="button" style="rounded=1;whiteSpace=wrap;html=1;" vertex="1" parent="1">
          <mxGeometry x="837.5" y="3410" width="80" height="20" as="geometry" />
        </mxCell>
        <mxCell id="Jusry1fd8HChnup1eYpJ-168" value="" style="endArrow=none;html=1;rounded=0;exitX=1;exitY=0;exitDx=0;exitDy=0;entryX=0;entryY=1;entryDx=0;entryDy=0;" edge="1" parent="1">
          <mxGeometry width="50" height="50" relative="1" as="geometry">
            <mxPoint x="917.5" y="3320" as="sourcePoint" />
            <mxPoint x="837.5" y="3400" as="targetPoint" />
          </mxGeometry>
        </mxCell>
        <mxCell id="Jusry1fd8HChnup1eYpJ-169" value="" style="endArrow=none;html=1;rounded=0;exitX=0;exitY=0;exitDx=0;exitDy=0;entryX=1;entryY=1;entryDx=0;entryDy=0;" edge="1" parent="1">
          <mxGeometry width="50" height="50" relative="1" as="geometry">
            <mxPoint x="837.5" y="3320" as="sourcePoint" />
            <mxPoint x="917.5" y="3400" as="targetPoint" />
          </mxGeometry>
        </mxCell>
        <mxCell id="Jusry1fd8HChnup1eYpJ-172" value="" style="whiteSpace=wrap;html=1;aspect=fixed;" vertex="1" parent="1">
          <mxGeometry x="370" y="3530" width="660" height="660" as="geometry" />
        </mxCell>
        <mxCell id="Jusry1fd8HChnup1eYpJ-173" value="lorem" style="rounded=1;whiteSpace=wrap;html=1;" vertex="1" parent="1">
          <mxGeometry x="670" y="3550" width="80" height="20" as="geometry" />
        </mxCell>
        <mxCell id="Jusry1fd8HChnup1eYpJ-174" value="" style="rounded=1;whiteSpace=wrap;html=1;" vertex="1" parent="1">
          <mxGeometry x="370" y="3530" width="660" height="60" as="geometry" />
        </mxCell>
        <mxCell id="Jusry1fd8HChnup1eYpJ-175" value="lorem" style="rounded=1;whiteSpace=wrap;html=1;" vertex="1" parent="1">
          <mxGeometry x="580" y="3550" width="80" height="20" as="geometry" />
        </mxCell>
        <mxCell id="Jusry1fd8HChnup1eYpJ-176" value="lorem" style="rounded=1;whiteSpace=wrap;html=1;" vertex="1" parent="1">
          <mxGeometry x="490" y="3550" width="80" height="20" as="geometry" />
        </mxCell>
        <mxCell id="Jusry1fd8HChnup1eYpJ-177" value="lorem" style="rounded=1;whiteSpace=wrap;html=1;" vertex="1" parent="1">
          <mxGeometry x="390" y="3550" width="80" height="20" as="geometry" />
        </mxCell>
        <mxCell id="Jusry1fd8HChnup1eYpJ-178" value="lorem" style="rounded=1;whiteSpace=wrap;html=1;" vertex="1" parent="1">
          <mxGeometry x="780" y="3550" width="80" height="20" as="geometry" />
        </mxCell>
        <mxCell id="Jusry1fd8HChnup1eYpJ-179" value="lorem" style="rounded=1;whiteSpace=wrap;html=1;" vertex="1" parent="1">
          <mxGeometry x="670" y="3550" width="80" height="20" as="geometry" />
        </mxCell>
        <mxCell id="Jusry1fd8HChnup1eYpJ-180" value="lorem" style="rounded=1;whiteSpace=wrap;html=1;" vertex="1" parent="1">
          <mxGeometry x="890" y="3550" width="80" height="20" as="geometry" />
        </mxCell>
        <mxCell id="Jusry1fd8HChnup1eYpJ-182" value="" style="rounded=0;whiteSpace=wrap;html=1;" vertex="1" parent="1">
          <mxGeometry x="407.5" y="3740" width="310" height="250" as="geometry" />
        </mxCell>
        <mxCell id="Jusry1fd8HChnup1eYpJ-183" value="lorem" style="rounded=1;whiteSpace=wrap;html=1;" vertex="1" parent="1">
          <mxGeometry x="430" y="3810" width="100" height="40" as="geometry" />
        </mxCell>
        <mxCell id="Jusry1fd8HChnup1eYpJ-184" value="lorem" style="rounded=1;whiteSpace=wrap;html=1;" vertex="1" parent="1">
          <mxGeometry x="430" y="3870" width="240" height="50" as="geometry" />
        </mxCell>
        <mxCell id="Jusry1fd8HChnup1eYpJ-186" value="" style="rounded=1;whiteSpace=wrap;html=1;" vertex="1" parent="1">
          <mxGeometry x="780" y="3720" width="220" height="400" as="geometry" />
        </mxCell>
        <mxCell id="Jusry1fd8HChnup1eYpJ-187" value="" style="rounded=1;whiteSpace=wrap;html=1;" vertex="1" parent="1">
          <mxGeometry x="820" y="3770" width="150" height="320" as="geometry" />
        </mxCell>
        <mxCell id="Jusry1fd8HChnup1eYpJ-188" value="lorem" style="rounded=1;whiteSpace=wrap;html=1;" vertex="1" parent="1">
          <mxGeometry x="835" y="3790" width="110" height="30" as="geometry" />
        </mxCell>
        <mxCell id="Jusry1fd8HChnup1eYpJ-189" value="lorem" style="rounded=1;whiteSpace=wrap;html=1;" vertex="1" parent="1">
          <mxGeometry x="835" y="3850" width="110" height="30" as="geometry" />
        </mxCell>
        <mxCell id="Jusry1fd8HChnup1eYpJ-190" value="lorem" style="rounded=1;whiteSpace=wrap;html=1;" vertex="1" parent="1">
          <mxGeometry x="835" y="3905" width="110" height="30" as="geometry" />
        </mxCell>
        <mxCell id="Jusry1fd8HChnup1eYpJ-191" value="lorem" style="rounded=1;whiteSpace=wrap;html=1;" vertex="1" parent="1">
          <mxGeometry x="827.5" y="3960" width="125" height="40" as="geometry" />
        </mxCell>
        <mxCell id="Jusry1fd8HChnup1eYpJ-192" value="lorem" style="rounded=1;whiteSpace=wrap;html=1;" vertex="1" parent="1">
          <mxGeometry x="830" y="4030" width="125" height="40" as="geometry" />
        </mxCell>
        <mxCell id="Jusry1fd8HChnup1eYpJ-193" value="" style="whiteSpace=wrap;html=1;aspect=fixed;" vertex="1" parent="1">
          <mxGeometry x="370" y="4200" width="660" height="660" as="geometry" />
        </mxCell>
        <mxCell id="Jusry1fd8HChnup1eYpJ-194" value="lorem" style="rounded=1;whiteSpace=wrap;html=1;" vertex="1" parent="1">
          <mxGeometry x="670" y="4220" width="80" height="20" as="geometry" />
        </mxCell>
        <mxCell id="Jusry1fd8HChnup1eYpJ-195" value="" style="rounded=1;whiteSpace=wrap;html=1;" vertex="1" parent="1">
          <mxGeometry x="370" y="4200" width="660" height="60" as="geometry" />
        </mxCell>
        <mxCell id="Jusry1fd8HChnup1eYpJ-196" value="lorem" style="rounded=1;whiteSpace=wrap;html=1;" vertex="1" parent="1">
          <mxGeometry x="580" y="4220" width="80" height="20" as="geometry" />
        </mxCell>
        <mxCell id="Jusry1fd8HChnup1eYpJ-197" value="lorem" style="rounded=1;whiteSpace=wrap;html=1;" vertex="1" parent="1">
          <mxGeometry x="490" y="4220" width="80" height="20" as="geometry" />
        </mxCell>
        <mxCell id="Jusry1fd8HChnup1eYpJ-198" value="lorem" style="rounded=1;whiteSpace=wrap;html=1;" vertex="1" parent="1">
          <mxGeometry x="390" y="4220" width="80" height="20" as="geometry" />
        </mxCell>
        <mxCell id="Jusry1fd8HChnup1eYpJ-199" value="lorem" style="rounded=1;whiteSpace=wrap;html=1;" vertex="1" parent="1">
          <mxGeometry x="780" y="4220" width="80" height="20" as="geometry" />
        </mxCell>
        <mxCell id="Jusry1fd8HChnup1eYpJ-200" value="lorem" style="rounded=1;whiteSpace=wrap;html=1;" vertex="1" parent="1">
          <mxGeometry x="670" y="4220" width="80" height="20" as="geometry" />
        </mxCell>
        <mxCell id="Jusry1fd8HChnup1eYpJ-201" value="lorem" style="rounded=1;whiteSpace=wrap;html=1;" vertex="1" parent="1">
          <mxGeometry x="890" y="4220" width="80" height="20" as="geometry" />
        </mxCell>
        <mxCell id="Jusry1fd8HChnup1eYpJ-202" value="" style="rounded=0;whiteSpace=wrap;html=1;" vertex="1" parent="1">
          <mxGeometry x="407.5" y="4410" width="310" height="250" as="geometry" />
        </mxCell>
        <mxCell id="Jusry1fd8HChnup1eYpJ-203" value="lorem" style="rounded=1;whiteSpace=wrap;html=1;" vertex="1" parent="1">
          <mxGeometry x="430" y="4480" width="100" height="40" as="geometry" />
        </mxCell>
        <mxCell id="Jusry1fd8HChnup1eYpJ-204" value="lorem" style="rounded=1;whiteSpace=wrap;html=1;" vertex="1" parent="1">
          <mxGeometry x="430" y="4540" width="240" height="50" as="geometry" />
        </mxCell>
        <mxCell id="Jusry1fd8HChnup1eYpJ-205" value="" style="rounded=1;whiteSpace=wrap;html=1;" vertex="1" parent="1">
          <mxGeometry x="780" y="4390" width="220" height="370" as="geometry" />
        </mxCell>
        <mxCell id="Jusry1fd8HChnup1eYpJ-206" value="" style="rounded=1;whiteSpace=wrap;html=1;" vertex="1" parent="1">
          <mxGeometry x="820" y="4440" width="150" height="290" as="geometry" />
        </mxCell>
        <mxCell id="Jusry1fd8HChnup1eYpJ-207" value="lorem" style="rounded=1;whiteSpace=wrap;html=1;" vertex="1" parent="1">
          <mxGeometry x="835" y="4460" width="110" height="30" as="geometry" />
        </mxCell>
        <mxCell id="Jusry1fd8HChnup1eYpJ-208" value="lorem" style="rounded=1;whiteSpace=wrap;html=1;" vertex="1" parent="1">
          <mxGeometry x="835" y="4520" width="110" height="30" as="geometry" />
        </mxCell>
        <mxCell id="Jusry1fd8HChnup1eYpJ-210" value="lorem" style="rounded=1;whiteSpace=wrap;html=1;" vertex="1" parent="1">
          <mxGeometry x="830" y="4580" width="125" height="40" as="geometry" />
        </mxCell>
        <mxCell id="Jusry1fd8HChnup1eYpJ-211" value="lorem" style="rounded=1;whiteSpace=wrap;html=1;" vertex="1" parent="1">
          <mxGeometry x="832.5" y="4640" width="125" height="40" as="geometry" />
        </mxCell>
        <mxCell id="Jusry1fd8HChnup1eYpJ-212" value="lorem" style="rounded=1;whiteSpace=wrap;html=1;" vertex="1" parent="1">
          <mxGeometry x="490" y="4600" width="100" height="40" as="geometry" />
        </mxCell>
        <mxCell id="Jusry1fd8HChnup1eYpJ-213" value="lorem" style="rounded=1;whiteSpace=wrap;html=1;" vertex="1" parent="1">
          <mxGeometry x="835" y="4400" width="120" height="20" as="geometry" />
        </mxCell>
      </root>
    </mxGraphModel>
  </diagram>
</mxfile>
